# xmcd
#
# Track frame offsets:
#	150
#	12824
#	24824
#	36607
#	49349
#	60899
#	72282
#	84300
#	93971
#	106199
#	121862
#	133959
#	146406
#	156799
#	170578
#	181895
#	192271
#	204911
#	216422
#	231140
#	244220
#	256630
#	269611
#	282607
#	292551
#
# Disc length: 4091 seconds
#
# Revision: 0
# Processed by: cddbd v1.5.2PL0 Copyright (c) Steve Scherf et al.
# Submitted via: EasyCDDAExtractor 15.3.0.1
#
DISCID=5f0ff919
DTITLE=Mel Tillis - Stomp Them Grapes - Sawmill...Plus
DYEAR=2011
DGENRE=Country
TTITLE0=Midnight Me And The Blues
TTITLE1=Scarlet Wings
TTITLE2=Amanda
TTITLE3=Hang My Picture In Your Heart
TTITLE4=If There Were No Memories
TTITLE5=Stomp Them Grapes
TTITLE6=My Side Of Life
TTITLE7=Somebody Gave Lucy A Drink
TTITLE8=Second Best
TTITLE9=Last Time
TTITLE10=Sawmill
TTITLE11=Leona
TTITLE12=Bobbi
TTITLE13=Borrowed Angel
TTITLE14=Remembering
TTITLE15=Live In My Heart
TTITLE16=Cheap Imitation
TTITLE17=If I Throw Away My Pride
TTITLE18=Take A Look At Me
TTITLE19=Thank You For Being You
TTITLE20=Commercial Affection
TTITLE21=Brand New Mister Me
TTITLE22=Best Way I Know How
TTITLE23=Take My  Hand
TTITLE24=You Are The One
EXTD=
EXTT0=
EXTT1=
EXTT2=
EXTT3=
EXTT4=
EXTT5=
EXTT6=
EXTT7=
EXTT8=
EXTT9=
EXTT10=
EXTT11=
EXTT12=
EXTT13=
EXTT14=
EXTT15=
EXTT16=
EXTT17=
EXTT18=
EXTT19=
EXTT20=
EXTT21=
EXTT22=
EXTT23=
EXTT24=
PLAYORDER=
